<?xml version="1.0" encoding="UTF-8"?>
<svg width="35px" height="35px" viewBox="0 0 35 35" version="1.1" xmlns="http://www.w3.org/2000/svg" xmlns:xlink="http://www.w3.org/1999/xlink" xmlns="http://www.w3.org/2000/svg">
    <!-- Generator: Sketch 46.1 (44463) - http://www.bohemiancoding.com/sketch -->
    <title>Artboard</title>
    <desc>Created with Sketch.</desc>
    <defs>
        <polyline id="path-1" points="4.58645833 30.2888889 0.266666667 26.1111111 0.266666667 0.261111111 26.4013605 0.261111111 26.4013605 26.1111111 9.6 26.1111111 9.6 9.4 21.3333333 9.4"></polyline>
        <path d="M5.06666667,4.7 L9.86666667,9.66111111" id="path-2"></path>
        <path d="M26.4,25.85 L21.6,21.4111111" id="path-3"></path>
        <path d="M13.545 2.907a13.2 13.2 0 0 0-3.257-1.011.05.05 0 0 0-.052.025c-.141.25-.297.577-.406.833a12.2 12.2 0 0 0-3.658 0 8 8 0 0 0-.412-.833.05.05 0 0 0-.052-.025c-1.125.194-2.22.534-3.257 1.011a.04.04 0 0 0-.021.018C.356 6.024-.213 9.047.066 12.032q.003.022.021.037a13.3 13.3 0 0 0 3.995 2.02.05.05 0 0 0 .056-.019q.463-.63.818-1.329a.05.05 0 0 0-.01-.059l-.018-.011a9 9 0 0 1-1.248-.595.05.05 0 0 1-.02-.066l.015-.019q.127-.095.248-.195a.05.05 0 0 1 .051-.007c2.619 1.196 5.454 1.196 8.041 0a.05.05 0 0 1 .053.007q.121.1.248.195a.05.05 0 0 1-.004.085 8 8 0 0 1-1.249.594.05.05 0 0 0-.03.03.05.05 0 0 0 .003.041c.24.465.515.909.817 1.329a.05.05 0 0 0 .056.019 13.2 13.2 0 0 0 4.001-2.02.05.05 0 0 0 .021-.037c.334-3.451-.559-6.449-2.366-9.106a.03.03 0 0 0-.02-.019m-8.198 7.307c-.789 0-1.438-.724-1.438-1.612s.637-1.613 1.438-1.613c.807 0 1.45.73 1.438 1.613 0 .888-.637 1.612-1.438 1.612m5.316 0c-.788 0-1.438-.724-1.438-1.612s.637-1.613 1.438-1.613c.807 0 1.451.73 1.438 1.613 0 .888-.631 1.612-1.438 1.612" id="path-4"></path>
    </defs>
    <g id="Ressource" stroke="none" stroke-width="1" fill="none" fill-rule="evenodd">
        <g id="Artboard" stroke="#FFFFFF">
            <g id="Logo" transform="translate(1.000000, 1.000000)">
                <g transform="translate(0.124369, 0.230286)" id="Line">
                    <g>
                        <g transform="translate(0.000000, 0.017615)">
                            <g stroke-linecap="round">
                                <use stroke-width="0.5616" xlink:href="#path-1"></use>
                                <use stroke-width="2.12300014" xlink:href="#path-1"></use>
                            </g>
                            <polyline stroke-width="2.12300014" stroke-linecap="round" points="26.8802083 0.261111111 31.2 4.43888889 31.2 30.2888889 5.06530616 30.2888889 5.06530616 4.69865421 21.6000001 4.69865421 21.6000001 21.4192682 9.6 21.4111111"></polyline>
                            <g>
                                <use stroke-width="0.5616" xlink:href="#path-2"></use>
                                <use stroke-width="2.12300014" xlink:href="#path-2"></use>
                            </g>
                            <g>
                                <use stroke-width="0.5616" xlink:href="#path-3"></use>
                                <use stroke-width="2.12300014" xlink:href="#path-3"></use>
                            </g>
                        </g>
                    </g>
                </g>
            </g>
        </g>
    </g>
</svg>